<svg width="38" height="38" viewBox="0 0 38 38" fill="none" xmlns="http://www.w3.org/2000/svg">
<path d="M36.4166 4.76583C36.4166 4.76583 33.2215 6.65316 31.445 7.18833C30.4914 6.09189 29.2241 5.31476 27.8145 4.96205C26.4048 4.60933 24.9209 4.69806 23.5633 5.21621C22.2057 5.73437 21.04 6.65697 20.2239 7.85921C19.4077 9.06146 18.9805 10.4854 19 11.9383V13.5217C16.2175 13.5938 13.4603 12.9767 10.9741 11.7253C8.48782 10.4739 6.34965 8.627 4.74998 6.34916C4.74998 6.34916 -1.58335 20.5992 12.6666 26.9325C9.40582 29.1459 5.52131 30.2558 1.58331 30.0992C15.8333 38.0158 33.25 30.0992 33.25 11.8908C33.25 11.4507 33.2056 11.0105 33.1233 10.5767C34.7383 8.98383 36.4166 4.76583 36.4166 4.76583Z" stroke="#1E1411" stroke-width="2" stroke-linecap="round" stroke-linejoin="round"/>
</svg>
